<svg xmlns="http://www.w3.org/2000/svg" viewBox="0 0 233.96 425.2"><defs><style>.cls-1{fill:#fff;}</style></defs><g id="레이어_2" data-name="레이어 2"><g id="Capa_2" data-name="Capa 2"><rect width="233.86" height="425.2"/><path class="cls-1" d="M3.68,5.85c.29.33.6.7.92,1.09l.54.64.11.13c.47.56,1,1.14,1.4,1.78a40.17,40.17,0,0,1,5.55,9.83c.09.3.2.62.31.94.23.67.46,1.36.64,2.06,0,.2.09.39.14.59a21.13,21.13,0,0,1,.49,2.63,24,24,0,0,1,0,6.87,23.29,23.29,0,0,1-2.14,6.93,23.79,23.79,0,0,1-4.27,6l-.2.2A22,22,0,0,1,.82,50l-.72.29v1.47c.42-.15.84-.32,1.27-.5a23.3,23.3,0,0,0,6.72-4.68l.18-.18a24.23,24.23,0,0,0,4.57-6.48,24,24,0,0,0,1.38-3.64,43.72,43.72,0,0,0,0,4.39A16.17,16.17,0,0,0,16,47.35a9.17,9.17,0,0,0,2.53,2.95A10.67,10.67,0,0,0,22.18,52a11.65,11.65,0,0,0,4.17.41,10.31,10.31,0,0,0,4.17-1.36,10.63,10.63,0,0,0,3.27-3,10.38,10.38,0,0,0,1.7-4.16A8.3,8.3,0,0,0,35,39.38,7.37,7.37,0,0,0,30.14,35l-.52-.11a2,2,0,0,0-.39-.07l-.18,0a6.31,6.31,0,0,0-5.14,1.86l-.06.05a6.8,6.8,0,0,0-1.94,3.67,5.33,5.33,0,0,0,.78,4l.2.26a4.11,4.11,0,0,0,.44.51c.09.08.16.15.24.21a3.72,3.72,0,0,0,.53.41l.27.15c.2.11.41.22.62.31l.23.06.65.18a4.25,4.25,0,0,0,3.51-1.07l.2-.18a2.74,2.74,0,0,0,.39-.48,2.71,2.71,0,0,0,.42-.67l0-.07a2.66,2.66,0,0,0,.25-.63l0-.13a.55.55,0,0,1,0-.12,2.75,2.75,0,0,0,.07-.3l0-.4a3.34,3.34,0,0,0-1.11-2.79,3,3,0,0,0-2.55-.7,2.76,2.76,0,0,0-1.35.75,2.92,2.92,0,0,0-.48.63,2.6,2.6,0,0,0-.35,1.8,2.23,2.23,0,0,0,.67,1.18,1.85,1.85,0,0,0,1,.47.23.23,0,0,0,.28,0l0,0a.26.26,0,0,0,.05-.24.32.32,0,0,0-.23-.18,1.43,1.43,0,0,1-.69-.39,1.64,1.64,0,0,1-.44-.88A2,2,0,0,1,26,40.63a2.08,2.08,0,0,1,.32-.4,2.05,2.05,0,0,1,1.05-.57,2.14,2.14,0,0,1,1.81.59,2.45,2.45,0,0,1,.74,2.06l0,.33a.83.83,0,0,1,0,.15,1.21,1.21,0,0,0,0,.14l0,.11a2.39,2.39,0,0,1-.2.48l-.08.13a2,2,0,0,1-.27.42l-.3.35-.17.15a3.18,3.18,0,0,1-2.6.76l-.75-.24A2.52,2.52,0,0,1,25,44.9l-.28-.16a3.07,3.07,0,0,1-.32-.27l-.25-.22a2.71,2.71,0,0,1-.26-.34l-.21-.27c-1.09-1.63-.65-4.24,1-5.92l.12-.11A5.09,5.09,0,0,1,28,36.16a4.35,4.35,0,0,1,.89,0l.16,0a.71.71,0,0,1,.23,0l.51.12a5.56,5.56,0,0,1,1.62.76A6.47,6.47,0,0,1,34,43.64a9,9,0,0,1-1.43,3.58,9.24,9.24,0,0,1-1.06,1.28,9.52,9.52,0,0,1-1.73,1.36,8.73,8.73,0,0,1-3.57,1.19,10.13,10.13,0,0,1-3.7-.34,10,10,0,0,1-3.24-1.47A8.11,8.11,0,0,1,17,46.74a15.46,15.46,0,0,1-1.72-6.2c-.18-2.12-.18-4.16-.17-5.65V34.1c0-1.14,0-2.13,0-3a24.56,24.56,0,0,0-.24-5.71,21.9,21.9,0,0,0-.57-2.79L14.21,22c-.19-.74-.44-1.45-.68-2.13-.12-.33-.23-.65-.34-1A38.8,38.8,0,0,0,7.34,9l-.16-.23.23.17a38.65,38.65,0,0,0,9.94,5.84l1,.34c.69.24,1.4.49,2.14.69l.58.14a22.26,22.26,0,0,0,2.77.56,24.07,24.07,0,0,0,5.73.23c.86,0,1.84,0,3,0h.82c1.85,0,3.67,0,5.65.18a15.42,15.42,0,0,1,6.19,1.72,8,8,0,0,1,2.5,2.26,9.63,9.63,0,0,1,1.46,3.23,10,10,0,0,1,.35,3.7,8.63,8.63,0,0,1-1.19,3.57,9.13,9.13,0,0,1-2.63,2.8,9,9,0,0,1-3.58,1.43A6.5,6.5,0,0,1,35.54,33a5.76,5.76,0,0,1-.76-1.63l-.11-.48a1,1,0,0,1,0-.23l0-.2a4.83,4.83,0,0,1,0-.86A5.14,5.14,0,0,1,36,26.41l.12-.12c1.67-1.68,4.28-2.12,5.94-1a2.88,2.88,0,0,0,.24.19,2.63,2.63,0,0,1,.37.29,1.62,1.62,0,0,0,.19.22,3,3,0,0,1,.29.35,1.87,1.87,0,0,0,.15.26c.07.13.14.24.2.37l.23.76A3.11,3.11,0,0,1,43,30.25l-.16.19a3.17,3.17,0,0,1-.34.28,1.56,1.56,0,0,1-.44.3l-.11.06a1.75,1.75,0,0,1-.5.21l-.11,0-.14.05-.13,0-.34,0a2.4,2.4,0,0,1-2.06-.73,2.12,2.12,0,0,1-.59-1.81,1.94,1.94,0,0,1,.56-1.05,3,3,0,0,1,.4-.32,2,2,0,0,1,1.32-.33,1.55,1.55,0,0,1,.9.44,1.53,1.53,0,0,1,.39.69.26.26,0,0,0,.17.22.23.23,0,0,0,.24,0s0,0,0,0a.25.25,0,0,0,.06-.28,1.94,1.94,0,0,0-.47-1,2.14,2.14,0,0,0-1.19-.67,2.55,2.55,0,0,0-1.8.35,2.92,2.92,0,0,0-.63.48,2.73,2.73,0,0,0-.75,1.34,3,3,0,0,0,.7,2.56,3.38,3.38,0,0,0,2.79,1.11l.39,0a1.37,1.37,0,0,0,.31-.08l.11,0,.15,0a2.62,2.62,0,0,0,.64-.25l.07,0a3.13,3.13,0,0,0,.67-.42,3.68,3.68,0,0,0,.46-.38,2,2,0,0,0,.19-.22,4.24,4.24,0,0,0,1.07-3.47l0-.06-.22-.82c-.1-.24-.22-.46-.33-.67l-.12-.23a4.62,4.62,0,0,0-.41-.53l-.21-.24a5.09,5.09,0,0,0-.53-.45l-.24-.19a5.34,5.34,0,0,0-4-.79,7,7,0,0,0-2,.69,7.16,7.16,0,0,0-1.66,1.25l-.07.06a6.54,6.54,0,0,0-1.86,4,6.25,6.25,0,0,0,0,1.14l0,.19a2.38,2.38,0,0,0,.06.41l.11.49a7.39,7.39,0,0,0,.94,2.07,7.52,7.52,0,0,0,3.46,2.82,8.35,8.35,0,0,0,4.48.48,10.44,10.44,0,0,0,4.17-1.71,9.27,9.27,0,0,0,1.41-1.19,9.86,9.86,0,0,0,1.62-2.08,10.12,10.12,0,0,0,1.36-4.16,9.63,9.63,0,0,0,0-2.14s0,0,0-.05a15.35,15.35,0,0,0-.38-2,10.49,10.49,0,0,0-1.72-3.67,9.24,9.24,0,0,0-2.94-2.53,16.43,16.43,0,0,0-6.71-1.72c-1.58-.1-3.07-.09-4.37-.05a23.09,23.09,0,0,0,3.62-1.37,24.45,24.45,0,0,0,6.48-4.57L45,9.65a23.12,23.12,0,0,0,4.68-6.71A21.35,21.35,0,0,0,50.57.5H49.12c-.2.62-.44,1.26-.71,1.89A21.89,21.89,0,0,1,44,8.76l-.21.2a23.57,23.57,0,0,1-6,4.28,23,23,0,0,1-6.93,2.13,23.53,23.53,0,0,1-6.86,0,20.94,20.94,0,0,1-2.64-.5l-.59-.14c-.69-.17-1.38-.4-2-.63l-1-.32A40,40,0,0,1,7.93,8.22c-.66-.46-1.25-1-1.82-1.44L6,6.7l-.62-.52c-.39-.32-.77-.63-1.12-.95L2,3a7.14,7.14,0,0,0-.5.62Z"/><path class="cls-1" d="M.73,27.34a8.12,8.12,0,0,1,.83,8.13A9.08,9.08,0,0,1,.1,37.84v2c.18-.16.36-.32.53-.49A10.19,10.19,0,0,0,2.92,36a9.54,9.54,0,0,0-1-9.52A10,10,0,0,0,.1,24.67v1.92A7.36,7.36,0,0,1,.73,27.34Z"/><path class="cls-1" d="M24.94,3.46a9.58,9.58,0,0,0,9.52,1A10.19,10.19,0,0,0,37.83,2.2a8.94,8.94,0,0,0,.66-.71,6.77,6.77,0,0,0,.65-.87L39.22.5H37.44q-.27.33-.57.63a9.38,9.38,0,0,1-3,2,8.14,8.14,0,0,1-8.14-.83A9,9,0,0,1,24,.5H22.28A10.76,10.76,0,0,0,24.94,3.46Z"/><path class="cls-1" d="M53.69,1.28c.09.34.18.68.27,1,.16.55.28,1.13.4,1.74l.12.56L55,7.06c.09.51.17,1.06.24,1.59,0,.31.08.61.13.91s.07.54.11.81a11.28,11.28,0,0,1,.18,1.75c0,.89.07,1.77.11,2.67a13.31,13.31,0,0,1,0,1.67c0,.34,0,.66,0,1l0,1.34c0,.26-.06.54-.1.81l-.06.5c0,.3-.09.62-.12.93-.07.56-.14,1.13-.26,1.68l-.56,2.57c-.13.53-.31,1.06-.47,1.58-.09.29-.18.58-.26.86a12.49,12.49,0,0,1-.52,1.49c-.11.28-.22.56-.32.84l-.43,1.12-.48,1.06a41.76,41.76,0,0,1-2,3.87l-.8,1.31-.22.35-1,1.45c-.74,1-1.27,1.72-1.73,2.26-.94,1.14-1.58,1.78-1.65,1.85a.27.27,0,0,0,0,.36.25.25,0,0,0,.34,0l.51-.45.15-.14c.17-.16.37-.35.59-.58s.38-.39.59-.62c.5-.52,1.08-1.2,1.9-2.2l1.09-1.42L51,36.65a43.37,43.37,0,0,0,2.2-3.92l.54-1.07.49-1.14c.08-.21.16-.4.24-.59.17-.41.34-.82.5-1.25.39-1,.71-1.86,1-2.71a54.21,54.21,0,0,0,1.94-8,63.58,63.58,0,0,0,.67-9.67c0-.55,0-1.12-.06-1.66,0-.31,0-.62,0-.93,0-.88-.08-1.77-.17-2.68,0-.49-.08-1-.13-1.52L58,.5H56.68c.09,1,.18,1.87.27,2.7s.15,1.69.21,2.61l.06.93c0,.54.08,1.1.09,1.64,0,1.86,0,3.75-.12,5.66,0-.68-.08-1.36-.11-2a15.76,15.76,0,0,0-.21-1.83c0-.28-.1-.56-.13-.83s-.1-.61-.14-.91c-.08-.55-.17-1.12-.28-1.68s-.19-.82-.28-1.22c-.29-1.24-.55-2.41-.9-3.54-.1-.33-.2-.66-.29-1-.06-.17-.11-.34-.16-.51h-1.2C53.56.76,53.62,1,53.69,1.28Z"/><path class="cls-1" d="M42.11,46.22a.25.25,0,0,0-.35,0h0c-.08.08-.72.72-1.85,1.65-.55.46-1.25,1-2.28,1.74l-1.45,1-1.66,1a38.8,38.8,0,0,1-3.85,2l-1.08.5-1.12.42c-.27.09-.54.2-.82.31a13.79,13.79,0,0,1-1.49.53l-.84.25c-.53.17-1.07.34-1.62.48l-2.56.56a15.82,15.82,0,0,1-1.68.25l-.94.13-.45.06-.86.1-1.33,0-1,0a13.46,13.46,0,0,1-1.68,0l-2.66-.11a11.29,11.29,0,0,1-1.76-.18L8,56.93l-.9-.13c-.53-.06-1.08-.14-1.6-.24l-2.1-.44-.33-.07-.57-.12c-.61-.13-1.18-.24-1.73-.4L.1,55.36v1.26l.32.09c1.13.34,2.29.61,3.52.89l1.23.29c.57.11,1.14.2,1.7.28l.9.13.82.13a12.45,12.45,0,0,0,1.86.21l2,.11c-1.9.13-3.79.17-5.65.13-.55,0-1.09-.05-1.67-.09l-.9-.06c-.92-.06-1.75-.11-2.61-.21L.1,58.36V59.7l1.38.12c.92.09,1.89.14,2.67.17l.93,0c.55,0,1.11.06,1.66.05a62.24,62.24,0,0,0,9.67-.67,52.68,52.68,0,0,0,8-1.93c.87-.29,1.76-.63,2.72-1,.44-.16.88-.34,1.31-.52l.51-.21,1.14-.48,1.09-.55a43.55,43.55,0,0,0,3.9-2.2l1.65-1.11.36-.28,1.06-.81c1-.83,1.7-1.42,2.23-1.92.22-.2.42-.4.6-.58s.42-.43.58-.6l.14-.14c.3-.33.44-.51.44-.51A.23.23,0,0,0,42.11,46.22Z"/><path class="cls-1" d="M184.41,4a22.9,22.9,0,0,0,4.67,6.71l.19.18a24,24,0,0,0,6.47,4.58,23.84,23.84,0,0,0,3.63,1.37c-1.31,0-2.79-.05-4.38.05a16.39,16.39,0,0,0-6.7,1.72,9,9,0,0,0-2.95,2.53,10.7,10.7,0,0,0-1.72,3.66,15.49,15.49,0,0,0-.38,2v0a9.67,9.67,0,0,0,0,2.15,10.31,10.31,0,0,0,1.35,4.16,10.48,10.48,0,0,0,1.62,2.08,10.06,10.06,0,0,0,1.42,1.19,10.54,10.54,0,0,0,4.16,1.71,8.29,8.29,0,0,0,4.49-.49,7.55,7.55,0,0,0,3.46-2.81,7.69,7.69,0,0,0,.93-2.07l.12-.49a4.07,4.07,0,0,0,.06-.41,1.37,1.37,0,0,1,0-.19,5.47,5.47,0,0,0,0-1.14,6.54,6.54,0,0,0-1.86-4l-.06-.07a7.47,7.47,0,0,0-1.67-1.24,7,7,0,0,0-2-.69,5.34,5.34,0,0,0-4,.79l-.25.19a5.09,5.09,0,0,0-.53.45l-.21.24c-.13.16-.27.33-.41.53a1.67,1.67,0,0,1-.12.23,5.94,5.94,0,0,0-.32.67l-.23.82a.14.14,0,0,1,0,.06A4.24,4.24,0,0,0,190.26,32a2,2,0,0,0,.19.22c.16.15.33.28.46.38a3.13,3.13,0,0,0,.67.42l.08,0a2.35,2.35,0,0,0,.64.25l.15.05.1,0a2.24,2.24,0,0,0,.31.08l.39,0A3.32,3.32,0,0,0,196,32.38a3,3,0,0,0,.7-2.55,2.73,2.73,0,0,0-.75-1.34,3.61,3.61,0,0,0-.62-.49,2.63,2.63,0,0,0-1.81-.34,2.17,2.17,0,0,0-1.19.67,2,2,0,0,0-.47,1,.25.25,0,0,0,.06.28l0,0a.26.26,0,0,0,.24,0,.28.28,0,0,0,.18-.22,1.38,1.38,0,0,1,.38-.69,1.62,1.62,0,0,1,.9-.44,2,2,0,0,1,1.32.32,2.51,2.51,0,0,1,.4.33,2,2,0,0,1,.57,1,2.14,2.14,0,0,1-.6,1.82,2.39,2.39,0,0,1-2,.73l-.34-.05a.43.43,0,0,1-.14,0l-.13,0-.12,0a1.88,1.88,0,0,1-.5-.21l-.11-.06a1.81,1.81,0,0,1-.44-.3,3,3,0,0,1-.33-.28l-.16-.19a3.1,3.1,0,0,1-.75-2.55l.23-.75a2.24,2.24,0,0,1,.2-.37c0-.09.11-.19.14-.26a2.33,2.33,0,0,1,.3-.35l.19-.22a2.3,2.3,0,0,1,.37-.3l.24-.18c1.65-1.1,4.26-.66,5.94,1l.12.12a5.16,5.16,0,0,1,1.44,3.15,4,4,0,0,1,0,.86l0,.19a2,2,0,0,1,0,.24l-.12.47a5.7,5.7,0,0,1-.76,1.64A6.48,6.48,0,0,1,192,36.65a9,9,0,0,1-3.57-1.42,9,9,0,0,1-2.64-2.8,8.83,8.83,0,0,1-1.19-3.57,10,10,0,0,1,.35-3.7,9.45,9.45,0,0,1,1.47-3.23,8,8,0,0,1,2.49-2.26A15.46,15.46,0,0,1,195.09,18c2-.17,3.8-.18,5.66-.18h.81c1.13,0,2.11,0,3,0a24.11,24.11,0,0,0,5.73-.23A23,23,0,0,0,213,17l.57-.14c.74-.2,1.46-.45,2.14-.69l1-.34A38.87,38.87,0,0,0,226.67,10l.22-.17-.16.23a38.92,38.92,0,0,0-5.85,10c-.1.33-.22.65-.34,1-.23.68-.48,1.38-.68,2.12l-.13.54a20,20,0,0,0-.56,2.79,24,24,0,0,0-.25,5.71c0,.9,0,1.88,0,3V36c0,1.49,0,3.53-.18,5.65A15.46,15.46,0,0,1,217,47.8a8.11,8.11,0,0,1-2.26,2.5,9.83,9.83,0,0,1-3.23,1.46,10.18,10.18,0,0,1-3.7.35,8.79,8.79,0,0,1-3.58-1.2,9,9,0,0,1-1.73-1.36,8.6,8.6,0,0,1-1.06-1.27A9,9,0,0,1,200,44.7a6.49,6.49,0,0,1,2.65-6.54,5.9,5.9,0,0,1,1.61-.75l.51-.12a1.07,1.07,0,0,1,.23,0l.17,0a4.26,4.26,0,0,1,.88,0,5.11,5.11,0,0,1,3.15,1.45l.11.11c1.68,1.68,2.12,4.29,1,5.92l-.2.27c-.1.13-.19.25-.27.34l-.25.22-.31.27-.29.16a2.06,2.06,0,0,1-.35.19l-.75.24a3.15,3.15,0,0,1-2.6-.77,1.07,1.07,0,0,1-.16-.14,3.83,3.83,0,0,1-.3-.35,1.71,1.71,0,0,1-.28-.42l-.08-.14a1.66,1.66,0,0,1-.19-.48l0-.1s0-.09,0-.14a.88.88,0,0,1-.05-.15l0-.33a2.41,2.41,0,0,1,.73-2.06,2.16,2.16,0,0,1,1.82-.59,2,2,0,0,1,1,.57,2.08,2.08,0,0,1,.32.4,1.93,1.93,0,0,1,.33,1.33,1.64,1.64,0,0,1-.43.88,1.44,1.44,0,0,1-.7.39.29.29,0,0,0-.22.18.24.24,0,0,0,0,.24l0,0a.28.28,0,0,0,.29,0,1.89,1.89,0,0,0,1-.47,2.22,2.22,0,0,0,.66-1.18,2.62,2.62,0,0,0-.34-1.81,3.26,3.26,0,0,0-.49-.62,2.65,2.65,0,0,0-1.34-.75,3,3,0,0,0-2.55.7,3.31,3.31,0,0,0-1.12,2.79l0,.4a1.41,1.41,0,0,0,.08.3.68.68,0,0,1,0,.12l0,.13a3.42,3.42,0,0,0,.25.63l0,.06a2.77,2.77,0,0,0,.42.68,5.15,5.15,0,0,0,.39.48,1.4,1.4,0,0,0,.2.17,4.24,4.24,0,0,0,3.52,1.08l.65-.18.22-.07a6,6,0,0,0,.63-.3l.27-.15a4.27,4.27,0,0,0,.52-.41l.25-.21a4.24,4.24,0,0,0,.43-.52c.06-.08.13-.15.2-.25a5.35,5.35,0,0,0,.78-4,6.83,6.83,0,0,0-.69-2,7.47,7.47,0,0,0-1.24-1.67l-.06,0a6.53,6.53,0,0,0-4-1.87,5.66,5.66,0,0,0-1.16,0l-.17,0a2,2,0,0,0-.4.07l-.51.11a7.17,7.17,0,0,0-2.06.93,7.57,7.57,0,0,0-2.82,3.46,8.38,8.38,0,0,0-.48,4.49,10.25,10.25,0,0,0,1.71,4.16,10.06,10.06,0,0,0,1.19,1.42,10.2,10.2,0,0,0,6.24,3,11.63,11.63,0,0,0,4.17-.41,10.49,10.49,0,0,0,3.67-1.72,9.26,9.26,0,0,0,2.53-3,16.35,16.35,0,0,0,1.72-6.7,43.52,43.52,0,0,0,0-4.39A23,23,0,0,0,221.24,41a23.8,23.8,0,0,0,4.57,6.47l.18.19a23,23,0,0,0,6.72,4.68c.42.18.84.35,1.25.5V51.32l-.71-.28a21.79,21.79,0,0,1-6.37-4.43l-.2-.2a23.3,23.3,0,0,1-4.27-6,22.73,22.73,0,0,1-2.14-6.93,23.67,23.67,0,0,1,0-6.88,19.59,19.59,0,0,1,.5-2.62c0-.2.09-.4.14-.59.17-.7.41-1.4.63-2.07l.32-.93a39.85,39.85,0,0,1,5.55-9.83c.44-.64.93-1.22,1.4-1.78l.11-.13c.18-.22.36-.43.53-.65l.92-1.09,2.18-2.22a5.79,5.79,0,0,0-.5-.61L229.8,6.29c-.35.32-.73.63-1.12,1l-.62.52-.09.08c-.58.48-1.17,1-1.83,1.44a40,40,0,0,1-9.81,5.54l-1,.32c-.66.23-1.35.46-2,.63l-.59.14a20.94,20.94,0,0,1-2.64.5,23.53,23.53,0,0,1-6.86,0,23,23,0,0,1-6.93-2.13,23.82,23.82,0,0,1-6-4.28l-.2-.2a21.89,21.89,0,0,1-4.42-6.37A20.16,20.16,0,0,1,185,1.56H183.5A21.45,21.45,0,0,0,184.41,4Z"/><path class="cls-1" d="M195.59,2.55a7.3,7.3,0,0,0,.65.71,10.19,10.19,0,0,0,3.37,2.29,9.58,9.58,0,0,0,9.52-1,10.56,10.56,0,0,0,2.66-2.95H210.1a8.77,8.77,0,0,1-1.8,1.8,8.14,8.14,0,0,1-8.13.83,9.16,9.16,0,0,1-3-2,5.59,5.59,0,0,1-.57-.63h-1.79l.08.11A7,7,0,0,0,195.59,2.55Z"/><path class="cls-1" d="M231.15,37.08a10.28,10.28,0,0,0,2.29,3.38c.17.17.35.32.52.48v-2a9.26,9.26,0,0,1-1.45-2.36,8.12,8.12,0,0,1,.84-8.13,8.55,8.55,0,0,1,.61-.74V25.73a10.28,10.28,0,0,0-1.77,1.84A9.54,9.54,0,0,0,231.15,37.08Z"/><path class="cls-1" d="M231.59,57l-.57.12-.33.06-2.1.45c-.51.1-1.07.18-1.6.24l-.9.13-.82.12a11.29,11.29,0,0,1-1.76.18l-2.66.11a13.46,13.46,0,0,1-1.68,0l-1,0-1.34,0-.86-.11-.45-.06-.93-.12a16,16,0,0,1-1.69-.25l-2.56-.56c-.54-.14-1.09-.31-1.61-.48l-.85-.26a12.49,12.49,0,0,1-1.49-.52l-.82-.32-1.12-.42-1.07-.49a39,39,0,0,1-3.86-2l-1.66-1-1.45-1c-1-.74-1.73-1.28-2.27-1.74-1.14-.94-1.77-1.57-1.85-1.65h0a.25.25,0,0,0-.37.34l.45.51.13.14c.16.17.35.38.58.6l.61.58c.52.5,1.21,1.09,2.22,1.92l1.06.81.37.28L199,53.58a41.91,41.91,0,0,0,3.89,2.2l1.09.54,1.14.48.51.22c.43.18.87.36,1.32.52,1,.38,1.84.72,2.71,1a52.68,52.68,0,0,0,8,1.93,62.32,62.32,0,0,0,9.67.67c.55,0,1.12,0,1.66,0l.94-.05c.77,0,1.75-.08,2.66-.17l1.37-.12V59.42l-1.52.16c-.86.1-1.69.15-2.61.21q-.45,0-.9.06c-.57,0-1.12.08-1.67.08-1.85,0-3.74,0-5.65-.12l2-.11a12.45,12.45,0,0,0,1.86-.21l.83-.13.9-.14c.55-.08,1.12-.16,1.69-.27l1.24-.29c1.22-.28,2.39-.55,3.51-.89l.31-.09V56.42l-.64.17C232.77,56.75,232.2,56.86,231.59,57Z"/><path class="cls-1" d="M175.82,4.1c-.09.9-.13,1.8-.17,2.68,0,.31,0,.62-.05.93,0,.54-.06,1.11,0,1.66a62.32,62.32,0,0,0,.67,9.67,53,53,0,0,0,1.93,8c.29.85.61,1.71,1,2.71.15.42.32.84.49,1.25l.24.58.49,1.15.54,1.07a43.28,43.28,0,0,0,2.21,3.92l1.11,1.65,1.09,1.42c.82,1,1.41,1.68,1.9,2.2l.59.62c.22.22.43.42.6.57l.14.14c.32.3.51.45.51.45a.23.23,0,0,0,.34,0,.24.24,0,0,0,0-.35c-.07-.07-.7-.71-1.65-1.85-.46-.55-1-1.24-1.72-2.26l-1-1.46-.21-.34L184,37.16a41.76,41.76,0,0,1-2-3.87l-.48-1.06-.43-1.12c-.09-.28-.21-.56-.32-.85a13.58,13.58,0,0,1-.52-1.48c-.08-.29-.17-.57-.26-.86-.16-.52-.33-1.05-.47-1.58L179,23.77c-.12-.55-.19-1.12-.26-1.68,0-.31-.07-.63-.12-.93a4.26,4.26,0,0,0-.06-.5c0-.28-.07-.55-.1-.81l-.05-1.34c0-.33,0-.66,0-1a13.42,13.42,0,0,1,0-1.68l.12-2.66a11.28,11.28,0,0,1,.17-1.75q.06-.42.12-.81l.12-.91c.07-.53.15-1.09.24-1.59l.53-2.44c0-.19.07-.37.11-.56.12-.62.24-1.19.4-1.74.09-.36.18-.7.27-1s.14-.53.2-.78h-1.2l-.15.51-.3,1c-.35,1.13-.61,2.3-.89,3.54-.1.4-.19.8-.28,1.22s-.21,1.13-.29,1.68c0,.3-.09.6-.14.91s-.08.55-.12.83a12.35,12.35,0,0,0-.21,1.83c0,.68-.07,1.35-.11,2-.13-1.9-.17-3.79-.12-5.66,0-.54,0-1.09.08-1.63,0-.31.05-.62.06-.93.06-.92.11-1.75.21-2.61s.18-1.75.27-2.7H176c0,.34,0,.69-.09,1C175.91,3.09,175.86,3.6,175.82,4.1Z"/><path class="cls-1" d="M209.13,423a9.61,9.61,0,0,0-9.52-1,10.19,10.19,0,0,0-3.37,2.29,7.3,7.3,0,0,0-.65.71l0,0h2a9.36,9.36,0,0,1,2.6-1.66,8.14,8.14,0,0,1,8.13.83,8.4,8.4,0,0,1,1,.83h1.87A10.19,10.19,0,0,0,209.13,423Z"/><path class="cls-1" d="M180.11,424.14c-.16-.55-.28-1.13-.4-1.74,0-.19-.07-.37-.11-.56l-.53-2.44c-.09-.51-.17-1.06-.24-1.59l-.12-.91q-.06-.39-.12-.81a11.28,11.28,0,0,1-.17-1.75l-.12-2.67a13.31,13.31,0,0,1,0-1.67c0-.33,0-.66,0-1l.05-1.34c0-.26.06-.54.1-.81a4.26,4.26,0,0,0,.06-.5c0-.3.09-.62.12-.93.07-.56.14-1.13.26-1.68l.56-2.57c.14-.53.31-1.06.47-1.58.09-.29.18-.58.26-.86a13.58,13.58,0,0,1,.52-1.48c.11-.29.23-.57.32-.85l.43-1.12.48-1.06a41.76,41.76,0,0,1,2-3.87l.81-1.31.21-.34,1-1.46c.73-1,1.26-1.71,1.72-2.26.95-1.14,1.58-1.78,1.65-1.85a.24.24,0,0,0,0-.35.23.23,0,0,0-.34,0s-.19.15-.51.45l-.14.14c-.17.15-.38.35-.6.57l-.59.62c-.49.51-1.08,1.19-1.9,2.2l-1.09,1.42-1.11,1.65a43.28,43.28,0,0,0-2.21,3.92l-.54,1.07-.49,1.15-.24.58c-.17.41-.34.82-.49,1.25-.4,1-.72,1.86-1,2.71a53,53,0,0,0-1.93,8,62.32,62.32,0,0,0-.67,9.67c0,.55,0,1.12,0,1.66,0,.31,0,.62.05.93,0,.88.08,1.78.17,2.68,0,.49.09,1,.13,1.52a.11.11,0,0,1,0,.05h1.34c-.06-.6-.12-1.19-.18-1.73-.1-.86-.15-1.69-.21-2.61,0-.31,0-.62-.06-.93,0-.54-.08-1.1-.08-1.63-.05-1.87,0-3.76.12-5.66,0,.68.07,1.35.11,2a12.35,12.35,0,0,0,.21,1.83c0,.28.09.56.12.83s.1.61.14.91c.08.55.17,1.12.29,1.68s.18.82.28,1.22c.28,1.24.54,2.41.89,3.54,0,.18.11.35.16.52h1.24C180.26,424.71,180.19,424.43,180.11,424.14Z"/><path class="cls-1" d="M192,380.24a.26.26,0,0,0,.35,0h0c.08-.08.71-.71,1.85-1.65.54-.46,1.24-1,2.27-1.74l1.45-1,1.66-1a39,39,0,0,1,3.86-2l1.07-.49,1.12-.42.82-.32a12.49,12.49,0,0,1,1.49-.52l.85-.27c.52-.16,1.07-.33,1.61-.47l2.56-.56a16,16,0,0,1,1.69-.25l.93-.12.45-.06.86-.11,1.34,0,1,0a13.46,13.46,0,0,1,1.68,0l2.66.11a11.29,11.29,0,0,1,1.76.18l.82.12.9.12c.53.07,1.09.15,1.6.25l2.1.44.33.07.57.12c.61.13,1.18.24,1.73.4l.64.17v-1.26l-.31-.09c-1.12-.34-2.29-.61-3.51-.89l-1.24-.29c-.57-.11-1.14-.19-1.69-.28-.3,0-.6-.08-.9-.14s-.56-.08-.83-.12a12.45,12.45,0,0,0-1.86-.21l-2-.11c1.91-.13,3.8-.17,5.65-.13.55,0,1.1.05,1.67.09l.9.06c.92.06,1.75.11,2.61.21l1.52.16v-1.34l-1.37-.12c-.91-.09-1.89-.14-2.66-.17l-.94-.05c-.54,0-1.11-.06-1.66-.05a62.32,62.32,0,0,0-9.67.67,52.68,52.68,0,0,0-8,1.93c-.87.29-1.75.63-2.71,1-.45.16-.89.34-1.32.52l-.51.21-1.14.49-1.09.54a41.91,41.91,0,0,0-3.89,2.2l-1.65,1.11-.37.28-1.06.81c-1,.83-1.7,1.42-2.22,1.92l-.61.58c-.23.22-.42.42-.58.6l-.13.14-.45.5A.26.26,0,0,0,192,380.24Z"/><path class="cls-1" d="M233.35,399.12a8.12,8.12,0,0,1-.84-8.13,9.49,9.49,0,0,1,1.45-2.37v-2.05l-.52.49a10.28,10.28,0,0,0-2.29,3.38,9.54,9.54,0,0,0,1,9.51,10.63,10.63,0,0,0,1.77,1.84v-1.93A8.55,8.55,0,0,1,233.35,399.12Z"/><path class="cls-1" d="M232.15,422.4l-1.76-1.78-.92-1.1-.53-.64-.11-.13c-.47-.56-1-1.14-1.4-1.78a39.85,39.85,0,0,1-5.55-9.83l-.32-.93c-.22-.67-.46-1.37-.63-2.07-.05-.19-.1-.39-.14-.59a19.59,19.59,0,0,1-.5-2.62,23.67,23.67,0,0,1,0-6.88,22.73,22.73,0,0,1,2.14-6.93,23.3,23.3,0,0,1,4.27-6l.2-.2a21.79,21.79,0,0,1,6.37-4.43l.71-.28v-1.48c-.41.15-.83.32-1.25.5A23,23,0,0,0,226,379.9l-.18.19a23.8,23.8,0,0,0-4.57,6.47,23,23,0,0,0-1.39,3.64,43.52,43.52,0,0,0,0-4.39,16.35,16.35,0,0,0-1.72-6.7,9.15,9.15,0,0,0-2.53-2.95,10.49,10.49,0,0,0-3.67-1.72,11.63,11.63,0,0,0-4.17-.41,10.2,10.2,0,0,0-6.24,3,10.06,10.06,0,0,0-1.19,1.42,10.25,10.25,0,0,0-1.71,4.16,8.38,8.38,0,0,0,.48,4.49,7.57,7.57,0,0,0,2.82,3.46,7.17,7.17,0,0,0,2.06.93l.51.11a3.06,3.06,0,0,0,.4.07l.17,0a6.34,6.34,0,0,0,5.15-1.86l.06-.05a7.47,7.47,0,0,0,1.24-1.67,6.83,6.83,0,0,0,.69-2,5.35,5.35,0,0,0-.78-4c-.07-.1-.14-.17-.2-.26a5.05,5.05,0,0,0-.43-.51l-.25-.21a4.27,4.27,0,0,0-.52-.41l-.27-.15a6,6,0,0,0-.63-.3l-.22-.07-.65-.18a4.24,4.24,0,0,0-3.52,1.08,1.4,1.4,0,0,0-.2.17,5.15,5.15,0,0,0-.39.48,2.77,2.77,0,0,0-.42.68l0,.06a3.42,3.42,0,0,0-.25.63l0,.13a.68.68,0,0,1,0,.12,1.41,1.41,0,0,0-.08.3l0,.4a3.31,3.31,0,0,0,1.12,2.79,3,3,0,0,0,2.55.7,2.65,2.65,0,0,0,1.34-.75,3.61,3.61,0,0,0,.49-.62,2.62,2.62,0,0,0,.34-1.81,2.22,2.22,0,0,0-.66-1.18,1.89,1.89,0,0,0-1-.47.28.28,0,0,0-.29,0l0,0a.23.23,0,0,0,0,.24.29.29,0,0,0,.22.18,1.44,1.44,0,0,1,.7.39,1.64,1.64,0,0,1,.43.88,1.93,1.93,0,0,1-.33,1.33,2.08,2.08,0,0,1-.32.4,2,2,0,0,1-1,.57,2.16,2.16,0,0,1-1.82-.59,2.41,2.41,0,0,1-.73-2.06l0-.33a.88.88,0,0,1,.05-.15c0-.05,0-.1,0-.14l0-.11a1.71,1.71,0,0,1,.19-.47l.08-.14a1.71,1.71,0,0,1,.28-.42,3.83,3.83,0,0,1,.3-.35l.16-.15a3.18,3.18,0,0,1,2.6-.76l.75.24a2.06,2.06,0,0,1,.35.19l.29.16a3.1,3.1,0,0,1,.31.27l.25.22c.08.09.17.21.27.34l.2.27c1.09,1.63.65,4.24-1,5.92l-.11.11a5.11,5.11,0,0,1-3.15,1.45,4.26,4.26,0,0,1-.88,0l-.17,0a1.07,1.07,0,0,1-.23,0l-.51-.12a5.9,5.9,0,0,1-1.61-.75,6.49,6.49,0,0,1-2.65-6.54,9,9,0,0,1,1.43-3.58,9.24,9.24,0,0,1,1.06-1.28,9.37,9.37,0,0,1,1.73-1.35,8.64,8.64,0,0,1,3.58-1.2,10.18,10.18,0,0,1,3.7.35,9.63,9.63,0,0,1,3.23,1.46,8.11,8.11,0,0,1,2.26,2.5,15.46,15.46,0,0,1,1.72,6.2c.18,2.12.18,4.16.18,5.65v.8c0,1.14,0,2.12,0,3a24,24,0,0,0,.25,5.71,20,20,0,0,0,.56,2.79l.13.54c.2.74.45,1.44.68,2.12.12.33.24.65.34,1a39.09,39.09,0,0,0,5.85,10l.16.22-.22-.16a38.87,38.87,0,0,0-9.95-5.84l-1-.34c-.68-.24-1.4-.49-2.14-.69l-.57-.14a23,23,0,0,0-2.77-.56,24.11,24.11,0,0,0-5.73-.23c-.87,0-1.85,0-3,0h-.81c-1.86,0-3.68,0-5.66-.18a15.46,15.46,0,0,1-6.19-1.72,8,8,0,0,1-2.49-2.26,9.45,9.45,0,0,1-1.47-3.23,10,10,0,0,1-.35-3.7,8.78,8.78,0,0,1,1.19-3.57,9,9,0,0,1,2.64-2.8,8.82,8.82,0,0,1,3.57-1.42,6.46,6.46,0,0,1,6.54,2.63,5.76,5.76,0,0,1,.76,1.63l.12.48a2,2,0,0,1,0,.24l0,.19a4,4,0,0,1,0,.86,5.16,5.16,0,0,1-1.44,3.15l-.12.12c-1.68,1.68-4.29,2.12-5.94,1l-.24-.18a2.3,2.3,0,0,1-.37-.3l-.19-.22a2.33,2.33,0,0,1-.3-.35c0-.07-.09-.17-.14-.26a2.72,2.72,0,0,1-.2-.37l-.23-.76a3.08,3.08,0,0,1,.75-2.54,1.12,1.12,0,0,1,.16-.19c.1-.1.21-.19.33-.29a2.09,2.09,0,0,1,.44-.29l.11-.06a1.88,1.88,0,0,1,.5-.21l.12,0,.13,0a.43.43,0,0,1,.14,0l.34-.05a2.39,2.39,0,0,1,2,.73,2.14,2.14,0,0,1,.6,1.82,2,2,0,0,1-.57,1,3.19,3.19,0,0,1-.4.33,2,2,0,0,1-1.32.32,1.62,1.62,0,0,1-.9-.44,1.42,1.42,0,0,1-.38-.69.27.27,0,0,0-.18-.22.26.26,0,0,0-.24,0l0,0a.25.25,0,0,0-.06.28,2,2,0,0,0,.47,1,2.17,2.17,0,0,0,1.19.67,2.63,2.63,0,0,0,1.81-.34A3.61,3.61,0,0,0,196,399a2.73,2.73,0,0,0,.75-1.34,3,3,0,0,0-.7-2.56,3.34,3.34,0,0,0-2.79-1.1l-.39,0a2.24,2.24,0,0,0-.31.08l-.1,0-.15.05a2.35,2.35,0,0,0-.64.25l-.08,0a3.13,3.13,0,0,0-.67.42c-.13.1-.3.23-.46.38a2,2,0,0,0-.19.22,4.24,4.24,0,0,0-1.07,3.47l0,.06.23.82a5.94,5.94,0,0,0,.32.67,1.67,1.67,0,0,1,.12.23c.14.2.28.37.41.53l.21.24a5.09,5.09,0,0,0,.53.45l.25.19a5.34,5.34,0,0,0,4,.79,7,7,0,0,0,2-.69,7.47,7.47,0,0,0,1.67-1.24L199,401a6.54,6.54,0,0,0,1.86-4,5.37,5.37,0,0,0,0-1.13,1.37,1.37,0,0,1,0-.19,4.07,4.07,0,0,0-.06-.41l-.12-.49a7.69,7.69,0,0,0-.93-2.07,7.57,7.57,0,0,0-3.46-2.82,8.38,8.38,0,0,0-4.49-.48,10.39,10.39,0,0,0-4.16,1.71,10.06,10.06,0,0,0-1.42,1.19,10.13,10.13,0,0,0-3,6.24,9.67,9.67,0,0,0,0,2.15v0a15.35,15.35,0,0,0,.38,2,10.75,10.75,0,0,0,1.72,3.67,9,9,0,0,0,2.95,2.53,16.39,16.39,0,0,0,6.7,1.72c1.59.1,3.07.09,4.38.05a22.83,22.83,0,0,0-3.63,1.37,24.24,24.24,0,0,0-6.47,4.57l-.19.19a22.9,22.9,0,0,0-4.67,6.71c-.22.5-.41,1-.59,1.47h1.47c.12-.3.24-.61.38-.92a21.76,21.76,0,0,1,4.42-6.37l.2-.2a23.82,23.82,0,0,1,6-4.28,23,23,0,0,1,6.93-2.13,23.53,23.53,0,0,1,6.86,0,20.94,20.94,0,0,1,2.64.5l.59.14c.69.17,1.38.4,2,.63l1,.32a40,40,0,0,1,9.81,5.54c.66.46,1.25,1,1.83,1.44l.09.08.62.52c.39.32.77.63,1.12,1l1.79,1.75A6.16,6.16,0,0,0,232.15,422.4Z"/><path class="cls-1" d="M49.67,423.52A23.12,23.12,0,0,0,45,416.81l-.18-.19a24.45,24.45,0,0,0-6.48-4.57,23.09,23.09,0,0,0-3.62-1.37c1.3,0,2.79.05,4.37-.05a16.43,16.43,0,0,0,6.71-1.72,9.11,9.11,0,0,0,2.94-2.53,10.57,10.57,0,0,0,1.72-3.67,15.35,15.35,0,0,0,.38-2v0a9.72,9.72,0,0,0,0-2.15,10.12,10.12,0,0,0-1.36-4.16,9.86,9.86,0,0,0-1.62-2.08,10.58,10.58,0,0,0-1.41-1.19,10.44,10.44,0,0,0-4.17-1.71,8.35,8.35,0,0,0-4.48.48,7.52,7.52,0,0,0-3.46,2.82,7.39,7.39,0,0,0-.94,2.07l-.11.49a2.38,2.38,0,0,0-.06.41l0,.19a6.15,6.15,0,0,0,0,1.13,6.54,6.54,0,0,0,1.86,4l.07.07a7.41,7.41,0,0,0,1.66,1.24,7,7,0,0,0,2,.69,5.34,5.34,0,0,0,4-.79L43,402a5.09,5.09,0,0,0,.53-.45l.21-.24a4.62,4.62,0,0,0,.41-.53l.12-.23c.11-.21.23-.43.33-.67l.22-.82s0-.05,0-.05a4.21,4.21,0,0,0-1.06-3.48,2,2,0,0,0-.19-.22,3.68,3.68,0,0,0-.46-.38,3.13,3.13,0,0,0-.67-.42l-.07,0a2.62,2.62,0,0,0-.64-.25l-.15-.05-.11,0a2.24,2.24,0,0,0-.31-.08l-.39,0a3.34,3.34,0,0,0-2.79,1.1,3,3,0,0,0-.7,2.56,2.73,2.73,0,0,0,.75,1.34,3.33,3.33,0,0,0,.63.49,2.59,2.59,0,0,0,1.8.34,2.14,2.14,0,0,0,1.19-.67,1.91,1.91,0,0,0,.47-1,.25.25,0,0,0-.06-.28l0,0a.25.25,0,0,0-.24,0,.26.26,0,0,0-.17.22,1.58,1.58,0,0,1-.39.69,1.55,1.55,0,0,1-.9.44,2,2,0,0,1-1.32-.32,4.12,4.12,0,0,1-.4-.33,1.94,1.94,0,0,1-.56-1,2.13,2.13,0,0,1,.59-1.82,2.4,2.4,0,0,1,2.06-.73l.34.05.13,0,.14,0,.11,0a1.75,1.75,0,0,1,.5.21l.11.06a2.09,2.09,0,0,1,.44.29c.12.1.24.19.34.29a1.12,1.12,0,0,1,.16.19,3.11,3.11,0,0,1,.75,2.54l-.23.76-.2.37a1.87,1.87,0,0,0-.15.26,3,3,0,0,1-.29.35,1.62,1.62,0,0,0-.19.22,3.72,3.72,0,0,1-.37.3,1.66,1.66,0,0,0-.24.18c-1.66,1.1-4.27.66-5.94-1l-.12-.12a5.12,5.12,0,0,1-1.45-3.15,4.83,4.83,0,0,1,0-.86l0-.19a1,1,0,0,1,0-.24l.11-.48a5.76,5.76,0,0,1,.76-1.63,6.46,6.46,0,0,1,6.54-2.63,8.86,8.86,0,0,1,3.58,1.42,9.13,9.13,0,0,1,2.63,2.8,8.63,8.63,0,0,1,1.19,3.57,10,10,0,0,1-.35,3.7,9.63,9.63,0,0,1-1.46,3.23,8,8,0,0,1-2.5,2.26A15.42,15.42,0,0,1,39,409.57c-2,.17-3.8.18-5.65.18h-.82c-1.13,0-2.11,0-3,0a24.07,24.07,0,0,0-5.73.23,22.26,22.26,0,0,0-2.77.56l-.58.14c-.74.2-1.45.45-2.14.69l-1,.34a38.65,38.65,0,0,0-9.94,5.84l-.23.16.16-.22a38.8,38.8,0,0,0,5.85-10c.11-.33.22-.65.34-1,.24-.68.49-1.38.68-2.12l.13-.54a21.55,21.55,0,0,0,.57-2.79,24.54,24.54,0,0,0,.24-5.71c0-.9,0-1.88,0-3v-.8c0-1.49,0-3.53.17-5.65a15.46,15.46,0,0,1,1.72-6.2,8.11,8.11,0,0,1,2.26-2.5,9.59,9.59,0,0,1,3.24-1.46,10.16,10.16,0,0,1,3.7-.35,8.6,8.6,0,0,1,3.57,1.2A9,9,0,0,1,31.54,378a9.24,9.24,0,0,1,1.06,1.28A9,9,0,0,1,34,382.82a6.5,6.5,0,0,1-2.64,6.54,5.83,5.83,0,0,1-1.62.75l-.51.12a1.07,1.07,0,0,1-.23,0l-.16,0a4.35,4.35,0,0,1-.89,0,5.09,5.09,0,0,1-3.14-1.45l-.12-.11c-1.68-1.68-2.12-4.29-1-5.92l.21-.27a3.72,3.72,0,0,1,.26-.34l.25-.22a3.07,3.07,0,0,1,.32-.27l.28-.16a2.52,2.52,0,0,1,.35-.19l.75-.24a3.18,3.18,0,0,1,2.6.76l.17.15.3.35a2,2,0,0,1,.27.42l.08.14a2.07,2.07,0,0,1,.2.47l0,.11a1.21,1.21,0,0,0,0,.14.83.83,0,0,1,0,.15l0,.33a2.44,2.44,0,0,1-.74,2.06,2.14,2.14,0,0,1-1.81.59,2.05,2.05,0,0,1-1.05-.57,2.08,2.08,0,0,1-.32-.4,2,2,0,0,1-.33-1.33,1.64,1.64,0,0,1,.44-.88,1.43,1.43,0,0,1,.69-.39.32.32,0,0,0,.23-.18.26.26,0,0,0-.05-.24l0,0a.26.26,0,0,0-.28,0,1.85,1.85,0,0,0-1,.47,2.23,2.23,0,0,0-.67,1.18,2.63,2.63,0,0,0,.35,1.81,3.13,3.13,0,0,0,.48.62,2.68,2.68,0,0,0,1.35.75,3,3,0,0,0,2.55-.7,3.33,3.33,0,0,0,1.11-2.79l0-.4a2.75,2.75,0,0,0-.07-.3.55.55,0,0,1,0-.12l0-.13a2.84,2.84,0,0,0-.25-.63l0-.06a2.77,2.77,0,0,0-.42-.68,3.16,3.16,0,0,0-.39-.48,1.4,1.4,0,0,0-.2-.17A4.22,4.22,0,0,0,25.87,380l-.65.18-.23.07a5,5,0,0,0-.62.3l-.27.15a3.72,3.72,0,0,0-.53.41l-.24.21a4.11,4.11,0,0,0-.44.51c-.06.09-.12.16-.2.26a5.35,5.35,0,0,0-.78,4,7.14,7.14,0,0,0,.69,2,7.22,7.22,0,0,0,1.25,1.67l.06.05a6.31,6.31,0,0,0,5.14,1.86l.18,0a3.24,3.24,0,0,0,.39-.07l.52-.11a7.23,7.23,0,0,0,2-.93A7.57,7.57,0,0,0,35,387.08a8.29,8.29,0,0,0,.48-4.49,10.38,10.38,0,0,0-1.7-4.16,10.63,10.63,0,0,0-3.27-3A10.31,10.31,0,0,0,26.35,374a11.65,11.65,0,0,0-4.17.41,10.67,10.67,0,0,0-3.67,1.72A9.27,9.27,0,0,0,16,379.11a16.17,16.17,0,0,0-1.71,6.7,43.72,43.72,0,0,0,0,4.39,24,24,0,0,0-1.38-3.64,24,24,0,0,0-4.57-6.47l-.18-.19a23.3,23.3,0,0,0-6.72-4.68L.1,374.71v1.48l.72.29a22,22,0,0,1,6.38,4.43l.2.2a23.79,23.79,0,0,1,4.27,6,23.29,23.29,0,0,1,2.14,6.93,24,24,0,0,1,0,6.88,21.32,21.32,0,0,1-.49,2.62c0,.2-.1.4-.14.59-.18.7-.41,1.4-.64,2.07-.11.32-.22.63-.31.93A40.17,40.17,0,0,1,6.65,417c-.44.64-.93,1.22-1.4,1.78l-.11.13-.54.64-.92,1.1-1.76,1.79a7.53,7.53,0,0,0,.56.57l1.79-1.75c.35-.32.73-.63,1.12-1l.62-.52.1-.08c.57-.48,1.16-1,1.82-1.44a40,40,0,0,1,9.81-5.54l1-.32c.66-.23,1.35-.46,2-.63l.59-.14a20.94,20.94,0,0,1,2.64-.5,23.53,23.53,0,0,1,6.86,0,23,23,0,0,1,6.93,2.13,23.82,23.82,0,0,1,6,4.28l.21.2a21.76,21.76,0,0,1,4.42,6.37c.13.31.26.62.37.92h1.47C50.07,424.51,49.88,424,49.67,423.52Z"/><path class="cls-1" d="M37.83,424.26A10.19,10.19,0,0,0,34.46,422a9.61,9.61,0,0,0-9.52,1,10.77,10.77,0,0,0-2,2h1.88a8.3,8.3,0,0,1,.95-.83,8.16,8.16,0,0,1,8.14-.83A9.45,9.45,0,0,1,36.5,425h2l0,0A8.94,8.94,0,0,0,37.83,424.26Z"/><path class="cls-1" d="M58.25,423.42c.09-.9.13-1.8.17-2.68,0-.31,0-.62,0-.93,0-.54.06-1.11.06-1.66a63.58,63.58,0,0,0-.67-9.67,54.21,54.21,0,0,0-1.94-8c-.29-.85-.61-1.72-1-2.71-.16-.43-.33-.84-.5-1.25l-.24-.58-.49-1.15-.54-1.07a43.37,43.37,0,0,0-2.2-3.92l-1.12-1.65-1.09-1.42c-.82-1-1.4-1.69-1.9-2.2-.21-.23-.4-.44-.59-.62s-.42-.42-.59-.57l-.15-.14c-.32-.3-.51-.45-.51-.45a.23.23,0,0,0-.34,0,.26.26,0,0,0,0,.35c.07.07.71.71,1.65,1.85.46.55,1,1.24,1.73,2.26l1,1.46.22.34.8,1.31a41.76,41.76,0,0,1,2,3.87l.48,1.06.43,1.12c.1.28.21.56.32.85a11.75,11.75,0,0,1,.52,1.48c.08.28.17.57.26.86.16.52.34,1,.47,1.58l.56,2.57c.12.55.19,1.12.26,1.68,0,.31.07.63.12.93l.06.5c0,.27.07.55.1.81l0,1.34c0,.33,0,.66,0,1a13.31,13.31,0,0,1,0,1.67c0,.9-.07,1.78-.11,2.67a11.28,11.28,0,0,1-.18,1.75c0,.28-.08.55-.11.81s-.09.61-.13.91c-.07.53-.15,1.08-.24,1.59l-.52,2.44-.12.56c-.12.61-.24,1.19-.4,1.74-.07.29-.15.57-.22.85H55l.15-.52c.35-1.13.61-2.3.9-3.54.09-.4.18-.8.28-1.22s.2-1.13.28-1.68c0-.3.09-.6.14-.91s.08-.55.13-.83a15.76,15.76,0,0,0,.21-1.83c0-.68.07-1.35.11-2,.13,1.9.17,3.79.12,5.66,0,.53-.05,1.09-.09,1.63l-.06.93c-.06.92-.11,1.75-.21,2.61-.06.54-.12,1.13-.18,1.73h1.34a.43.43,0,0,0,0-.05C58.17,424.43,58.21,423.91,58.25,423.42Z"/><path class="cls-1" d="M2.92,390.44a10.13,10.13,0,0,0-2.29-3.38l-.53-.5v2.06A9.08,9.08,0,0,1,1.56,391a8.12,8.12,0,0,1-.83,8.13,7.36,7.36,0,0,1-.63.75v1.92A10,10,0,0,0,1.88,400,9.52,9.52,0,0,0,2.92,390.44Z"/><path class="cls-1" d="M2.48,370.53l.57-.12.33-.07,2.1-.44c.52-.1,1.07-.18,1.6-.25l.9-.12.82-.12a11.29,11.29,0,0,1,1.76-.18l2.66-.11a13.46,13.46,0,0,1,1.68,0l1,0,1.33,0,.86.11.45.06.94.12a15.82,15.82,0,0,1,1.68.25l2.56.56c.55.14,1.09.31,1.62.47l.84.27a11.9,11.9,0,0,1,1.49.52l.82.32,1.12.42,1.08.49a38.8,38.8,0,0,1,3.85,2l1.66,1,1.45,1c1,.74,1.73,1.28,2.28,1.74,1.13.94,1.77,1.57,1.85,1.65h0a.26.26,0,0,0,.35,0,.25.25,0,0,0,0-.36s-.14-.17-.44-.5l-.14-.14c-.16-.18-.35-.38-.58-.6s-.38-.38-.6-.58c-.53-.5-1.21-1.09-2.23-1.92l-1.06-.81-.36-.28-1.65-1.11a43.55,43.55,0,0,0-3.9-2.2l-1.09-.54-1.14-.49-.51-.21c-.43-.18-.87-.36-1.31-.52-1-.38-1.85-.72-2.72-1a52.68,52.68,0,0,0-8-1.93,62.24,62.24,0,0,0-9.67-.67c-.55,0-1.11,0-1.66.05l-.93.05c-.78,0-1.75.08-2.67.17l-1.38.12v1.34l1.53-.16c.86-.1,1.69-.15,2.61-.21l.9-.06c.58,0,1.12-.08,1.67-.09,1.86,0,3.75,0,5.65.13l-2,.11a12.45,12.45,0,0,0-1.86.21l-.82.12c-.31.06-.6.1-.9.14-.56.09-1.13.17-1.7.28l-1.23.29c-1.23.28-2.39.55-3.52.89l-.32.1v1.25l.65-.17C1.3,370.77,1.87,370.66,2.48,370.53Z"/><path class="cls-1" d="M17.54,208.37a.77.77,0,0,1-.19.17,1.12,1.12,0,0,1-.18.1,1.14,1.14,0,0,1-.4.11,1,1,0,0,1-.42,0,1.1,1.1,0,0,1-.34-.18.42.42,0,0,1-.13.22l-.79.79a.5.5,0,0,1-.19.1l0,0,0,0,0,.12c0,.08.07.18.12.32l.19.42a2.53,2.53,0,0,0,.13.22,1.53,1.53,0,0,0,.14.21l.15.19.08.08,0,0h0l0,0,.17.1.08,0,.08,0,.07,0h.27a.79.79,0,0,1-1.29.37,2,2,0,0,1-.51,1.19,2,2,0,0,1-.51-1.18c-1,.54-1.28-.38-1.28-.38h.26l.08,0,.08,0,.08,0,.17-.1,0,0h0l0,0,.09-.08L14,211a1.53,1.53,0,0,0,.14-.21,2.39,2.39,0,0,0,.12-.22c.08-.15.14-.3.19-.42l.13-.32a.67.67,0,0,0,0-.12l0,0,0,0a.5.5,0,0,1-.19-.1l-.8-.79a.46.46,0,0,1-.12-.24h0a1.08,1.08,0,0,1-.35.19.94.94,0,0,1-.41,0,1,1,0,0,1-.4-.11.87.87,0,0,1-.19-.1.73.73,0,0,1-.18-.17.64.64,0,0,1-.13-.49.63.63,0,0,1,.25-.38.57.57,0,0,1,.36-.1.39.39,0,0,1,.25.1.37.37,0,0,1,.11.11l0,0,0,.05h-.05c-.7.07-.06.93.6.59a2,2,0,0,0,.46-.34l.26-.24.37-.36h0V69.3l0,0-.71-.71a1.83,1.83,0,0,0-.35-.25c-.66-.33-1.3.53-.6.6h.05l0,0,0,0a.37.37,0,0,1-.11.11.39.39,0,0,1-.25.1.52.52,0,0,1-.36-.11.58.58,0,0,1-.25-.37.64.64,0,0,1,.13-.49.73.73,0,0,1,.18-.17.87.87,0,0,1,.19-.1,1.24,1.24,0,0,1,.4-.11.94.94,0,0,1,.41,0,1.28,1.28,0,0,1,.35.18.39.39,0,0,1,.11-.22l.8-.79a.5.5,0,0,1,.19-.1l0,0,0,0a.67.67,0,0,0,0-.12,2.69,2.69,0,0,0-.12-.31c-.05-.14-.12-.28-.19-.43l-.12-.22c-.05-.08-.1-.14-.15-.21l-.15-.19a.6.6,0,0,0-.08-.08l0,0h0l0,0c-.07,0-.12-.08-.18-.1l-.07,0-.09,0-.07,0H13s.42-1.05,1.29-.38a2.08,2.08,0,0,1,.51-1.18,2.09,2.09,0,0,1,.52,1.18c1-.54,1.27.38,1.27.38h-.26l-.08,0-.08,0-.07,0a1.62,1.62,0,0,0-.18.1l0,0h0l0,0a.3.3,0,0,0-.08.08,1.46,1.46,0,0,0-.16.19l-.14.21-.12.22a3.15,3.15,0,0,0-.19.43l-.13.31c0,.07,0,.12,0,.12l0,0,0,0a.44.44,0,0,1,.19.1l.8.79a.39.39,0,0,1,.12.24l0,0a1.1,1.1,0,0,1,.34-.18,1,1,0,0,1,.42,0,1.4,1.4,0,0,1,.4.11,1.12,1.12,0,0,1,.18.1.77.77,0,0,1,.19.17.67.67,0,0,1,.12.49.58.58,0,0,1-.25.37.51.51,0,0,1-.36.11.39.39,0,0,1-.25-.1.24.24,0,0,1-.1-.11l0,0,0,0h.05c.7-.07.07-.93-.6-.6a3.43,3.43,0,0,0-.46.34l-.26.25-.37.37h0V207.33l0,0,.71.7a1.67,1.67,0,0,0,.35.24c.67.34,1.3-.52.6-.59H16.7l0-.05,0,0a.32.32,0,0,1,.1-.11.39.39,0,0,1,.25-.1.55.55,0,0,1,.36.1.63.63,0,0,1,.25.38A.67.67,0,0,1,17.54,208.37Z"/><path class="cls-1" d="M17.57,358.53a.73.73,0,0,1-.18.17,1.18,1.18,0,0,1-.19.1,1.32,1.32,0,0,1-.4.11,1.18,1.18,0,0,1-.42,0,1.38,1.38,0,0,1-.34-.18.35.35,0,0,1-.12.22l-.8.79a.4.4,0,0,1-.18.1.05.05,0,0,1,0,0l0,0a.64.64,0,0,1,0,.12l.12.31c.06.13.12.28.2.43a2.39,2.39,0,0,0,.12.22l.14.21.15.19.09.08,0,0h0a1.2,1.2,0,0,0,.17.11l.08,0,.08,0h.34s-.41,1.05-1.28.37a2.06,2.06,0,0,1-.52,1.19A2.12,2.12,0,0,1,14.3,362c-1,.55-1.28-.37-1.28-.37h.34l.08,0,.08,0a.82.82,0,0,0,.17-.11h0l0,0,.08-.08a1.39,1.39,0,0,0,.15-.19c.05-.07.1-.14.14-.21a2.53,2.53,0,0,0,.13-.22c.07-.15.14-.3.19-.43s.1-.23.12-.31l0-.12,0,0a.05.05,0,0,1,0,0,.4.4,0,0,1-.18-.1l-.8-.79a.47.47,0,0,1-.13-.24l0,0a1.22,1.22,0,0,1-.34.18,1.18,1.18,0,0,1-.42,0,1.32,1.32,0,0,1-.4-.11l-.19-.1a.73.73,0,0,1-.18-.17.61.61,0,0,1,.12-.87.59.59,0,0,1,.37-.1.49.49,0,0,1,.25.09.31.31,0,0,1,.1.12.1.1,0,0,1,0,.05l0,0h0c-.7.07-.06.93.6.59a2,2,0,0,0,.46-.34l.27-.24.37-.37h0V218.84l0,0-.71-.7a2.31,2.31,0,0,0-.36-.25c-.66-.34-1.3.53-.6.59h0l0,.05,0,0a.31.31,0,0,1-.1.12.49.49,0,0,1-.25.09.59.59,0,0,1-.37-.1.6.6,0,0,1-.12-.86.77.77,0,0,1,.18-.18l.19-.1a1.68,1.68,0,0,1,.4-.11,1.18,1.18,0,0,1,.42,0,1.56,1.56,0,0,1,.34.18.53.53,0,0,1,.12-.22l.8-.79a.46.46,0,0,1,.18-.1s0,0,0,0l0,0,0-.12-.12-.31a3.17,3.17,0,0,0-.2-.42.94.94,0,0,0-.12-.22,1.64,1.64,0,0,0-.14-.22l-.15-.19-.09-.08,0,0h0a1.2,1.2,0,0,0-.17-.11l-.08,0-.08,0H13s.41-1.05,1.28-.37a2.14,2.14,0,0,1,.52-1.19,2.17,2.17,0,0,1,.51,1.19c1-.55,1.28.37,1.28.37h-.34l-.08,0-.08,0a1.2,1.2,0,0,0-.17.11h0l0,0-.09.08-.15.19a1.64,1.64,0,0,0-.14.22,1.59,1.59,0,0,0-.13.22c-.07.14-.14.29-.19.42l-.12.31,0,.12h0l0,0a.4.4,0,0,1,.18.1l.8.79a.5.5,0,0,1,.13.25l0,0a1.83,1.83,0,0,1,.34-.18,1.18,1.18,0,0,1,.42,0,1.68,1.68,0,0,1,.4.11,1.18,1.18,0,0,1,.19.1.77.77,0,0,1,.18.18.56.56,0,0,1,.12.48.6.6,0,0,1-.24.38.59.59,0,0,1-.37.1.52.52,0,0,1-.25-.09l-.1-.12,0,0,0-.05h.05c.7-.06.06-.93-.6-.59a2,2,0,0,0-.46.34,3.33,3.33,0,0,0-.26.24l-.38.37h0V357.49l0,0,.72.7a1.24,1.24,0,0,0,.35.25c.66.34,1.3-.52.6-.59h-.05l0,0,0-.05.1-.12a.52.52,0,0,1,.25-.09.59.59,0,0,1,.37.1.63.63,0,0,1,.24.38A.59.59,0,0,1,17.57,358.53Z"/><path class="cls-1" d="M224.67,208.37a.77.77,0,0,1-.19.17,1.12,1.12,0,0,1-.18.1,1.14,1.14,0,0,1-.4.11,1,1,0,0,1-.42,0,1.22,1.22,0,0,1-.34-.18.48.48,0,0,1-.12.22l-.8.79a.46.46,0,0,1-.18.1s0,0,0,0l0,0a.67.67,0,0,0,0,.12l.12.32c.05.12.12.27.2.42a1.19,1.19,0,0,0,.12.22,1.53,1.53,0,0,0,.14.21l.15.19a.6.6,0,0,1,.08.08l.05,0h0l0,0,.17.1.08,0,.08,0,.07,0h.24s0,0,0,0a.79.79,0,0,1-1.29.37,2,2,0,0,1-.51,1.19,2,2,0,0,1-.51-1.18c-1,.54-1.28-.38-1.28-.38h.27l.07,0,.08,0,.08,0,.17-.1,0,0h0l0,0,.09-.08.15-.19a1.53,1.53,0,0,0,.14-.21l.13-.22.19-.42.12-.32a.67.67,0,0,0,0-.12l0,0,0,0a.5.5,0,0,1-.19-.1l-.79-.79a.41.41,0,0,1-.13-.24h0a1.14,1.14,0,0,1-.34.19,1,1,0,0,1-.42,0,1,1,0,0,1-.4-.11,1.18,1.18,0,0,1-.19-.1.73.73,0,0,1-.18-.17.64.64,0,0,1-.13-.49.67.67,0,0,1,.25-.38.58.58,0,0,1,.37-.1.44.44,0,0,1,.25.1.47.47,0,0,1,.1.11l0,0,0,.05h-.05c-.7.07-.06.93.6.59A2,2,0,0,0,221,208l.26-.24.37-.36h0V69.3l0,0-.72-.71a1.83,1.83,0,0,0-.35-.25c-.66-.33-1.3.53-.6.6H220l0,0,0,0a.47.47,0,0,1-.1.11.44.44,0,0,1-.25.1.53.53,0,0,1-.37-.11.62.62,0,0,1-.25-.37.64.64,0,0,1,.13-.49.73.73,0,0,1,.18-.17,1.18,1.18,0,0,1,.19-.1,1.24,1.24,0,0,1,.4-.11,1,1,0,0,1,.42,0,1.38,1.38,0,0,1,.34.18.39.39,0,0,1,.11-.22l.81-.79a.4.4,0,0,1,.18-.1l0,0,0,0s0,0,0-.12l-.13-.31a3.15,3.15,0,0,0-.19-.43l-.12-.22c-.05-.08-.1-.14-.14-.21a1.46,1.46,0,0,0-.16-.19.3.3,0,0,0-.08-.08l0,0h0l0,0a1.62,1.62,0,0,0-.18-.1l-.07,0-.09,0-.07,0h-.27s.42-1.05,1.29-.38a2.08,2.08,0,0,1,.51-1.18,2.09,2.09,0,0,1,.52,1.18c1-.54,1.28.38,1.28.38h-.27l-.07,0-.08,0a.2.2,0,0,0-.08,0,1.62,1.62,0,0,0-.18.1l0,0h0l0,0-.08.08a1.46,1.46,0,0,0-.16.19l-.14.21-.12.22a3.15,3.15,0,0,0-.19.43l-.13.31c0,.07,0,.12,0,.12l0,0,0,0a.44.44,0,0,1,.19.1l.8.79a.39.39,0,0,1,.12.24l0,0a1.22,1.22,0,0,1,.34-.18,1,1,0,0,1,.42,0,1.4,1.4,0,0,1,.4.11,1.12,1.12,0,0,1,.18.1.77.77,0,0,1,.19.17.67.67,0,0,1,.12.49.58.58,0,0,1-.25.37.51.51,0,0,1-.36.11.41.41,0,0,1-.25-.1.24.24,0,0,1-.1-.11.1.1,0,0,1,0,0l0,0h0c.71-.07.07-.93-.6-.6a2.78,2.78,0,0,0-.45.34l-.27.25-.37.37h0V207.33l0,0,.71.7a1.67,1.67,0,0,0,.35.24c.67.34,1.31-.52.6-.59h0l0-.05a.1.1,0,0,1,0,0,.32.32,0,0,1,.1-.11.41.41,0,0,1,.25-.1.55.55,0,0,1,.36.1.63.63,0,0,1,.25.38A.67.67,0,0,1,224.67,208.37Z"/><path class="cls-1" d="M224.7,358.53a.73.73,0,0,1-.18.17,1.18,1.18,0,0,1-.19.1,1.24,1.24,0,0,1-.4.11,1.2,1.2,0,0,1-.42,0,1.38,1.38,0,0,1-.34-.18.35.35,0,0,1-.12.22l-.8.79a.4.4,0,0,1-.18.1.05.05,0,0,1,0,0l0,0a.64.64,0,0,1,0,.12c0,.08.07.18.13.31a3.8,3.8,0,0,0,.19.43l.12.22.14.21a1.46,1.46,0,0,0,.16.19l.08.08,0,0h0a.87.87,0,0,0,.18.11l.07,0,.09,0h.34s-.42,1.05-1.29.37a2.09,2.09,0,0,1-.51,1.19,2.09,2.09,0,0,1-.52-1.19c-1,.55-1.28-.37-1.28-.37h.34l.08,0,.08,0a1.25,1.25,0,0,0,.18-.11h0l0,0,.08-.08a1.46,1.46,0,0,0,.16-.19l.13-.21a2.53,2.53,0,0,0,.13-.22c.07-.15.14-.3.19-.43s.1-.23.12-.31a1.26,1.26,0,0,0,0-.12l0,0,0,0a.46.46,0,0,1-.18-.1l-.8-.79a.39.39,0,0,1-.12-.24l0,0a1.22,1.22,0,0,1-.34.18,1.18,1.18,0,0,1-.42,0,1.32,1.32,0,0,1-.4-.11,1.12,1.12,0,0,1-.18-.1.77.77,0,0,1-.19-.17A.67.67,0,0,1,219,358a.6.6,0,0,1,.25-.38.55.55,0,0,1,.36-.1.49.49,0,0,1,.25.09.31.31,0,0,1,.1.12.1.1,0,0,1,0,.05l0,0H220c-.71.07-.06.93.59.59a2,2,0,0,0,.46-.34l.27-.24.37-.37h0V218.84l0,0-.71-.7a2.31,2.31,0,0,0-.36-.25c-.65-.34-1.3.53-.59.59H220l0,.05,0,0a.31.31,0,0,1-.1.12.49.49,0,0,1-.25.09.55.55,0,0,1-.36-.1.58.58,0,0,1-.25-.38.64.64,0,0,1,.12-.48.66.66,0,0,1,.19-.18,1.12,1.12,0,0,1,.18-.1,1.68,1.68,0,0,1,.4-.11,1.18,1.18,0,0,1,.42,0,1.56,1.56,0,0,1,.34.18.53.53,0,0,1,.12-.22l.8-.79a.46.46,0,0,1,.18-.1s0,0,0,0l0,0a1.26,1.26,0,0,0,0-.12l-.12-.31c0-.13-.12-.28-.19-.42a1.59,1.59,0,0,0-.13-.22,1.64,1.64,0,0,0-.14-.22L221,215l-.09-.08,0,0h0a1.2,1.2,0,0,0-.17-.11l-.08,0-.08,0h-.34a.79.79,0,0,1,1.29-.37,2.09,2.09,0,0,1,.51-1.19,2.17,2.17,0,0,1,.51,1.19c1-.55,1.28.37,1.28.37h-.34l-.08,0-.08,0a1.2,1.2,0,0,0-.17.11h0l0,0-.08.08a1.46,1.46,0,0,0-.16.19,1.64,1.64,0,0,0-.14.22,1.55,1.55,0,0,0-.12.22,3.17,3.17,0,0,0-.2.42l-.12.31,0,.12h0l0,0a.5.5,0,0,1,.19.1l.79.79a.44.44,0,0,1,.13.25l0,0a1.83,1.83,0,0,1,.34-.18,1.2,1.2,0,0,1,.42,0,1.56,1.56,0,0,1,.4.11,1.18,1.18,0,0,1,.19.1.77.77,0,0,1,.18.18.6.6,0,0,1,.13.48.66.66,0,0,1-.25.38.59.59,0,0,1-.37.1.52.52,0,0,1-.25-.09.77.77,0,0,1-.1-.12l0,0,0-.05h0c.7-.06.06-.93-.6-.59a2,2,0,0,0-.46.34l-.26.24-.37.37h0V357.49l0,0,.72.7a1.24,1.24,0,0,0,.35.25c.66.34,1.3-.52.6-.59h0l0,0,0-.05.1-.12a.52.52,0,0,1,.25-.09.59.59,0,0,1,.37.1.69.69,0,0,1,.25.38A.64.64,0,0,1,224.7,358.53Z"/><path class="cls-1" d="M122,413.17a1.07,1.07,0,0,1-.18-.19,1.12,1.12,0,0,1-.1-.18,1.4,1.4,0,0,1-.11-.4,1,1,0,0,1,.05-.42,1.08,1.08,0,0,1,.17-.34.53.53,0,0,1-.22-.12l-.79-.8a.5.5,0,0,1-.1-.19l0,0,0,0-.12,0c-.08,0-.18.07-.31.12l-.42.19-.23.13-.21.14c-.06,0-.13.09-.19.15l-.08.08,0,0h0v0a.82.82,0,0,0-.11.17l0,.08a.24.24,0,0,1,0,.08.17.17,0,0,0,0,.07.17.17,0,0,0,0,.07v.11a.08.08,0,0,0,0,.06v0a.79.79,0,0,1-.37-1.29.7.7,0,1,1,0-1c-.54-1,.37-1.28.37-1.28v0a.12.12,0,0,0,0,.07v.11a.13.13,0,0,0,0,.06.22.22,0,0,0,0,.08.19.19,0,0,1,0,.08.2.2,0,0,1,0,.08,1.2,1.2,0,0,0,.11.17v0h0l0,0,.08.09.19.15.21.14a2.53,2.53,0,0,0,.23.12,3.7,3.7,0,0,0,.42.19l.31.13.12,0,0,0,0,0a.5.5,0,0,1,.1-.19l.79-.8a.42.42,0,0,1,.25-.12l0,0a1.27,1.27,0,0,1-.17-.35,1,1,0,0,1-.05-.42,1.25,1.25,0,0,1,.11-.39.87.87,0,0,1,.1-.19,1.07,1.07,0,0,1,.18-.19.64.64,0,0,1,.48-.12.59.59,0,0,1,.48.62.45.45,0,0,1-.09.24.54.54,0,0,1-.12.11l0,0,0,0v0c-.06-.7-.93-.06-.59.6a2,2,0,0,0,.34.46c.09.1.18.18.24.26l.37.37H166s0,0,0,0l.7-.71A1.83,1.83,0,0,0,167,409c.34-.66-.53-1.3-.59-.6a.18.18,0,0,0,0,0l0,0,0,0a.54.54,0,0,1-.12-.11.38.38,0,0,1-.09-.24.59.59,0,0,1,.47-.62.66.66,0,0,1,.49.12,1.07,1.07,0,0,1,.18.19l.1.19a1.6,1.6,0,0,1,.11.39,1,1,0,0,1-.05.42,1.06,1.06,0,0,1-.18.35.45.45,0,0,1,.23.11l.78.8a.52.52,0,0,1,.11.19l0,0v0l.12,0,.31-.12.42-.19.22-.12.22-.15.19-.15.07-.08,0,0h0v0a1.25,1.25,0,0,0,.11-.18l0-.08,0-.08a.17.17,0,0,0,0-.07v-.18s0-.05,0-.06v0a.79.79,0,0,1,.37,1.29.7.7,0,1,1,0,1c.54,1.05-.37,1.28-.37,1.28v0s0,0,0-.07V412s0,0,0-.06a.22.22,0,0,0,0-.08l0-.08,0-.07a.87.87,0,0,0-.11-.18v0h0l0,0-.07-.08-.19-.16-.22-.14-.22-.12a3.7,3.7,0,0,0-.42-.19l-.31-.13-.12,0v0l0,0a.41.41,0,0,1-.11.19l-.78.8a.42.42,0,0,1-.25.12l0,0a.92.92,0,0,1,.18.34,1,1,0,0,1,.05.42,1.82,1.82,0,0,1-.11.4c0,.06-.06.11-.1.18a1.07,1.07,0,0,1-.18.19.66.66,0,0,1-.49.12.58.58,0,0,1-.37-.25.55.55,0,0,1-.1-.36.39.39,0,0,1,.09-.25.31.31,0,0,1,.12-.1l0,0,0,0a.18.18,0,0,0,0,.05c.06.7.93.07.59-.6a2.74,2.74,0,0,0-.34-.46c-.09-.1-.18-.18-.24-.26l-.37-.37H123l0,0-.7.71a2.22,2.22,0,0,0-.25.35c-.34.67.53,1.3.59.6v-.05l0,0,0,0a.44.44,0,0,1,.12.1.45.45,0,0,1,.09.25.55.55,0,0,1-.1.36.58.58,0,0,1-.38.25A.64.64,0,0,1,122,413.17Z"/><path class="cls-1" d="M66.81,413.2a.77.77,0,0,1-.18-.18,1.18,1.18,0,0,1-.1-.19,1.68,1.68,0,0,1-.11-.4,1,1,0,0,1,0-.42,1,1,0,0,1,.18-.34.43.43,0,0,1-.23-.12l-.78-.8a.38.38,0,0,1-.11-.18l0,0,0,0-.12,0-.31.12-.42.2-.23.12-.21.14-.19.15-.07.09,0,0h0v0a1.2,1.2,0,0,0-.11.17l0,.08a.19.19,0,0,1,0,.08.2.2,0,0,0,0,.07s0,0,0,.07v.11a.23.23,0,0,1,0,.07v0a.78.78,0,0,1-.37-1.28,2.06,2.06,0,0,1-1.19-.52,2.17,2.17,0,0,1,1.19-.51c-.54-1,.37-1.28.37-1.28a0,0,0,0,1,0,0,.2.2,0,0,1,0,.07v.11s0,0,0,.07a.2.2,0,0,0,0,.07.24.24,0,0,1,0,.08s0,.05,0,.08a.82.82,0,0,0,.11.17v0h0l0,.05.07.08c.06.06.13.1.19.15l.21.14.23.13.42.19c.13,0,.23.1.31.12l.12,0v0l0,0a.34.34,0,0,1,.11-.18l.78-.8a.5.5,0,0,1,.25-.13l0,0a1,1,0,0,1-.18-.34,1,1,0,0,1,0-.42,1.68,1.68,0,0,1,.11-.4,1.82,1.82,0,0,1,.1-.19.77.77,0,0,1,.18-.18.59.59,0,0,1,1,.49.49.49,0,0,1-.09.25.44.44,0,0,1-.12.1l0,0,0,0v-.05c-.06-.7-.93-.06-.59.6a2,2,0,0,0,.34.46c.09.1.18.19.24.27l.37.37h43.66l0,0,.71-.71a2.31,2.31,0,0,0,.25-.36c.33-.66-.53-1.3-.6-.6v.05l0,0,0,0a.32.32,0,0,1-.11-.1.41.41,0,0,1-.1-.25.55.55,0,0,1,.11-.37.61.61,0,0,1,.37-.24.63.63,0,0,1,.49.12.73.73,0,0,1,.17.18,1.82,1.82,0,0,1,.1.19,1.32,1.32,0,0,1,.11.4,1,1,0,0,1,0,.42,1.22,1.22,0,0,1-.18.34.48.48,0,0,1,.22.12l.79.8a.54.54,0,0,1,.11.18s0,0,0,0l0,0,.12,0,.31-.12a3.26,3.26,0,0,0,.43-.2,1.19,1.19,0,0,0,.22-.12,1.53,1.53,0,0,0,.21-.14,1.57,1.57,0,0,0,.19-.15l.08-.09,0,0h0l0,0c0-.06.08-.12.1-.17a.59.59,0,0,1,0-.08s0-.06,0-.08a.25.25,0,0,0,0-.07.15.15,0,0,1,0-.07.37.37,0,0,0,0-.11.15.15,0,0,0,0-.07s0,0,0,0,1.05.41.37,1.28a2.2,2.2,0,0,1,1.2.52,2.17,2.17,0,0,1-1.19.51c.54,1-.38,1.28-.38,1.28v0a.15.15,0,0,0,0-.07.37.37,0,0,0,0-.11.17.17,0,0,1,0-.07.25.25,0,0,0,0-.07s0-.05,0-.08a.59.59,0,0,1,0-.08s-.07-.11-.1-.17l0,0h0l0,0-.08-.08a1,1,0,0,0-.19-.16,1.53,1.53,0,0,0-.21-.14l-.22-.13c-.15-.07-.29-.14-.43-.19l-.31-.12-.12,0,0,0,0,0a.54.54,0,0,1-.11.18l-.79.8a.39.39,0,0,1-.24.12l0,0a1.22,1.22,0,0,1,.18.34,1,1,0,0,1,0,.42,1.32,1.32,0,0,1-.11.4,1.18,1.18,0,0,1-.1.19.73.73,0,0,1-.17.18.59.59,0,0,1-.49.12.61.61,0,0,1-.37-.24.55.55,0,0,1-.11-.37.44.44,0,0,1,.1-.25.47.47,0,0,1,.11-.1l0,0,0,0v.05c.07.7.93.06.6-.6a2.42,2.42,0,0,0-.35-.46,3.33,3.33,0,0,0-.24-.26l-.37-.38H67.84l0,0-.7.72a1.83,1.83,0,0,0-.25.35c-.34.66.53,1.3.59.6v-.05l0,0,0,0,.12.1a.52.52,0,0,1,.09.25.59.59,0,0,1-.1.37.6.6,0,0,1-.38.24A.56.56,0,0,1,66.81,413.2Z"/><path class="cls-1" d="M122,16.49a.77.77,0,0,1-.18-.18,1.82,1.82,0,0,1-.1-.19,1.32,1.32,0,0,1-.11-.4,1,1,0,0,1,.05-.42,1.2,1.2,0,0,1,.17-.34.53.53,0,0,1-.22-.12l-.79-.8a.46.46,0,0,1-.1-.18l0,0,0,0-.12,0-.31.12a3.9,3.9,0,0,0-.42.2l-.23.12-.21.14-.19.16-.08.08,0,0h0v0a1.2,1.2,0,0,0-.11.17.2.2,0,0,1,0,.08.19.19,0,0,1,0,.08.22.22,0,0,0,0,.08.13.13,0,0,0,0,.06v.11a.14.14,0,0,0,0,.07v0a.78.78,0,0,1-.37-1.28,2.14,2.14,0,0,1-1.19-.52,2.09,2.09,0,0,1,1.19-.51c-.54-1,.37-1.28.37-1.28v0a.14.14,0,0,0,0,.07v.11a.17.17,0,0,0,0,.07.2.2,0,0,0,0,.07.24.24,0,0,1,0,.08.2.2,0,0,1,0,.08c0,.05.07.11.11.18v0h0l0,0,.08.08.19.15.21.14.23.13.42.19.31.12.12,0,0,0,0,0a.4.4,0,0,1,.1-.18l.79-.8a.42.42,0,0,1,.25-.12l0,0a1.2,1.2,0,0,1-.17-.34,1,1,0,0,1-.05-.42,1.32,1.32,0,0,1,.11-.4,1.18,1.18,0,0,1,.1-.19A.77.77,0,0,1,122,11a.64.64,0,0,1,.48-.12.6.6,0,0,1,.38.24.59.59,0,0,1,.1.37.52.52,0,0,1-.09.25l-.12.1,0,0,0,0v0c-.06-.7-.93-.06-.59.6a2,2,0,0,0,.34.46l.24.26.37.38H166s0,0,0,0l.7-.72a1.83,1.83,0,0,0,.25-.35c.34-.66-.53-1.3-.59-.6v0l0,0,0,0-.12-.1a.44.44,0,0,1-.09-.25.59.59,0,0,1,.1-.37.61.61,0,0,1,.37-.24.66.66,0,0,1,.49.12.77.77,0,0,1,.18.18c0,.07.06.13.1.19a1.68,1.68,0,0,1,.11.4,1,1,0,0,1-.05.42,1,1,0,0,1-.18.34.57.57,0,0,1,.23.12l.78.8a.42.42,0,0,1,.11.18l0,0v0l.12,0,.31-.12.42-.2a1.55,1.55,0,0,0,.22-.12,1.64,1.64,0,0,0,.22-.14l.19-.16.07-.08,0,0h0v0a1.2,1.2,0,0,0,.11-.17l0-.08,0-.08a.2.2,0,0,0,0-.07V12a.64.64,0,0,0,0-.07v0a.78.78,0,0,1,.37,1.28,2.14,2.14,0,0,1,1.19.52,2.17,2.17,0,0,1-1.19.51c.54,1-.37,1.28-.37,1.28v0a.64.64,0,0,0,0-.07V15.3s0,0,0-.07a.17.17,0,0,0,0-.07l0-.08,0-.08a1.2,1.2,0,0,0-.11-.17v0h0l0,0-.07-.08-.19-.15a1.64,1.64,0,0,0-.22-.14.94.94,0,0,0-.22-.12,3.9,3.9,0,0,0-.42-.2l-.31-.12-.12,0v0l0,0a.34.34,0,0,1-.11.18l-.78.8a.5.5,0,0,1-.25.13,0,0,0,0,1,0,0,1,1,0,0,1,.18.34,1,1,0,0,1,.05.42,1.68,1.68,0,0,1-.11.4,1.65,1.65,0,0,0-.1.19.77.77,0,0,1-.18.18.62.62,0,0,1-.49.12.61.61,0,0,1-.37-.24.59.59,0,0,1-.1-.37.41.41,0,0,1,.09-.25l.12-.1,0,0,0,0v.05c.06.7.93.06.59-.6a2.39,2.39,0,0,0-.34-.46c-.09-.1-.18-.19-.24-.27L166,14H123l0,0-.7.71a1.91,1.91,0,0,0-.25.36c-.34.66.53,1.3.59.6v-.05l0,0,0,0,.12.1a.49.49,0,0,1,.09.25.59.59,0,0,1-.1.37.6.6,0,0,1-.86.12Z"/><path class="cls-1" d="M66.81,16.53a1.07,1.07,0,0,1-.18-.19,1.18,1.18,0,0,1-.1-.19,1.6,1.6,0,0,1-.11-.39,1,1,0,0,1,0-.42.92.92,0,0,1,.18-.34.51.51,0,0,1-.23-.12l-.78-.8a.41.41,0,0,1-.11-.19l0,0,0,0-.12,0c-.08,0-.18.07-.31.12l-.42.19-.23.13-.21.13-.19.16a.27.27,0,0,0-.07.08l0,0h0v0a1.25,1.25,0,0,0-.11.18s0,0,0,.08a.24.24,0,0,1,0,.08.17.17,0,0,0,0,.07s0,0,0,.07v.11a.18.18,0,0,1,0,.06v0a.79.79,0,0,1-.37-1.29,2.09,2.09,0,0,1-1.19-.51,2.09,2.09,0,0,1,1.19-.51c-.54-1,.37-1.28.37-1.28v0a.23.23,0,0,1,0,.07v.11s0,0,0,.06a.15.15,0,0,0,0,.07.31.31,0,0,1,0,.08.59.59,0,0,0,0,.08.87.87,0,0,0,.11.18v0h0l0,0a.27.27,0,0,0,.07.08l.19.16.21.14a2.53,2.53,0,0,0,.23.12l.42.19.31.13.12,0v0l0,0a.37.37,0,0,1,.11-.19l.78-.8a.42.42,0,0,1,.25-.12l0,0a1,1,0,0,1-.18-.33,1,1,0,0,1,0-.43,1.48,1.48,0,0,1,.11-.39.87.87,0,0,1,.1-.19,1.07,1.07,0,0,1,.18-.19.64.64,0,0,1,.48-.12.58.58,0,0,1,.38.25.58.58,0,0,1,.1.36.45.45,0,0,1-.09.25.54.54,0,0,1-.12.11l0,0,0,0v-.05c-.06-.7-.93-.06-.59.6a2,2,0,0,0,.34.46l.24.26.37.37h43.66l0,0,.71-.71a1.83,1.83,0,0,0,.25-.35c.33-.66-.53-1.3-.6-.6v.05l0,0,0,0a.37.37,0,0,1-.11-.11.39.39,0,0,1-.1-.25.54.54,0,0,1,.11-.36.58.58,0,0,1,.37-.25.67.67,0,0,1,.49.12,1,1,0,0,1,.17.19.87.87,0,0,1,.1.19,1.18,1.18,0,0,1,.11.39,1,1,0,0,1,0,.42,1.1,1.1,0,0,1-.18.34.48.48,0,0,1,.22.12l.79.8a.59.59,0,0,1,.11.19l0,0,0,0,.12,0,.31-.12c.14-.05.28-.12.43-.19l.22-.13.21-.13a1.6,1.6,0,0,0,.19-.16l.08-.08,0,0v0h0l0,0c0-.07.08-.13.1-.18s0,0,0-.08,0,0,0-.08a.19.19,0,0,0,0-.07.17.17,0,0,1,0-.07.37.37,0,0,0,0-.11.15.15,0,0,0,0-.07,0,0,0,0,0,0,0s1.05.42.37,1.29a2.15,2.15,0,0,1,1.2.51,2.09,2.09,0,0,1-1.19.51c.54,1.05-.38,1.28-.38,1.28s0,0,0,0a.15.15,0,0,0,0-.07.34.34,0,0,0,0-.11.13.13,0,0,1,0-.06.24.24,0,0,0,0-.08s0,0,0-.08l0-.07a1.62,1.62,0,0,0-.1-.18l0,0h0l0,0-.08-.08a1,1,0,0,0-.19-.16l-.21-.14-.22-.12c-.15-.08-.29-.14-.43-.2l-.31-.12-.12,0,0,0,0,0a.59.59,0,0,1-.11.19l-.79.8a.39.39,0,0,1-.24.12l0,0a1.1,1.1,0,0,1,.18.34,1,1,0,0,1,0,.42,1.25,1.25,0,0,1-.11.39,1.18,1.18,0,0,1-.1.19,1,1,0,0,1-.17.19.67.67,0,0,1-.49.12.58.58,0,0,1-.37-.25.52.52,0,0,1-.11-.36.39.39,0,0,1,.1-.25.24.24,0,0,1,.11-.1l0,0,0,0v.05c.07.7.93.06.6-.6a2.42,2.42,0,0,0-.35-.46l-.24-.26-.37-.37H67.84l0,0-.7.71a1.83,1.83,0,0,0-.25.35c-.34.66.53,1.3.59.6v-.05l0,0,0,0a.31.31,0,0,1,.12.1.45.45,0,0,1,.09.25.57.57,0,0,1-.1.36.58.58,0,0,1-.38.25A.64.64,0,0,1,66.81,16.53Z"/></g></g></svg>